<mxfile host="app.diagrams.net" modified="2022-05-07T11:45:52.957Z" agent="5.0 (Windows NT 10.0; Win64; x64) AppleWebKit/537.36 (KHTML, like Gecko) Chrome/101.0.4951.41 Safari/537.36 Edg/101.0.1210.32" etag="0AbhZVtrXmnmMtqGX-UP" version="18.0.0" type="github">
  <diagram id="_gadbMHVXYbLmo_CNy3T" name="Page-1">
    <mxGraphModel dx="1008" dy="528" grid="1" gridSize="10" guides="1" tooltips="1" connect="1" arrows="1" fold="1" page="1" pageScale="1" pageWidth="850" pageHeight="1100" math="0" shadow="0">
      <root>
        <mxCell id="0" />
        <mxCell id="1" parent="0" />
        <mxCell id="9C7nbwquLxDTIaKBx2kT-5" value="kubemark cluster" style="swimlane;" vertex="1" parent="1">
          <mxGeometry x="90" y="200" width="420" height="250" as="geometry" />
        </mxCell>
        <mxCell id="9C7nbwquLxDTIaKBx2kT-6" value="kubemark-master01" style="swimlane;" vertex="1" parent="9C7nbwquLxDTIaKBx2kT-5">
          <mxGeometry x="20" y="40" width="170" height="110" as="geometry" />
        </mxCell>
        <mxCell id="9C7nbwquLxDTIaKBx2kT-7" value="API server" style="rounded=0;whiteSpace=wrap;html=1;" vertex="1" parent="9C7nbwquLxDTIaKBx2kT-6">
          <mxGeometry x="10" y="70" width="70" height="30" as="geometry" />
        </mxCell>
        <mxCell id="9C7nbwquLxDTIaKBx2kT-8" value="controller manager" style="rounded=0;whiteSpace=wrap;html=1;" vertex="1" parent="9C7nbwquLxDTIaKBx2kT-6">
          <mxGeometry x="10" y="30" width="70" height="30" as="geometry" />
        </mxCell>
        <mxCell id="9C7nbwquLxDTIaKBx2kT-9" value="scheduler" style="rounded=0;whiteSpace=wrap;html=1;" vertex="1" parent="9C7nbwquLxDTIaKBx2kT-6">
          <mxGeometry x="90" y="30" width="70" height="30" as="geometry" />
        </mxCell>
        <mxCell id="9C7nbwquLxDTIaKBx2kT-11" value="kubelet" style="rounded=0;whiteSpace=wrap;html=1;" vertex="1" parent="9C7nbwquLxDTIaKBx2kT-6">
          <mxGeometry x="90" y="70" width="70" height="30" as="geometry" />
        </mxCell>
        <mxCell id="9C7nbwquLxDTIaKBx2kT-27" value="" style="curved=1;endArrow=classic;html=1;rounded=0;entryX=0.5;entryY=1;entryDx=0;entryDy=0;" edge="1" parent="9C7nbwquLxDTIaKBx2kT-6" source="9C7nbwquLxDTIaKBx2kT-11" target="9C7nbwquLxDTIaKBx2kT-7">
          <mxGeometry width="50" height="50" relative="1" as="geometry">
            <mxPoint x="100" y="210" as="sourcePoint" />
            <mxPoint x="150" y="160" as="targetPoint" />
            <Array as="points">
              <mxPoint x="130" y="130" />
            </Array>
          </mxGeometry>
        </mxCell>
        <mxCell id="9C7nbwquLxDTIaKBx2kT-13" value="kubemark-node01" style="swimlane;" vertex="1" parent="9C7nbwquLxDTIaKBx2kT-5">
          <mxGeometry x="220" y="40" width="170" height="70" as="geometry" />
        </mxCell>
        <mxCell id="9C7nbwquLxDTIaKBx2kT-17" value="kubelet" style="rounded=0;whiteSpace=wrap;html=1;" vertex="1" parent="9C7nbwquLxDTIaKBx2kT-13">
          <mxGeometry x="10" y="30" width="70" height="30" as="geometry" />
        </mxCell>
        <mxCell id="9C7nbwquLxDTIaKBx2kT-18" value="metrics server" style="rounded=0;whiteSpace=wrap;html=1;" vertex="1" parent="9C7nbwquLxDTIaKBx2kT-13">
          <mxGeometry x="90" y="30" width="70" height="30" as="geometry" />
        </mxCell>
        <mxCell id="9C7nbwquLxDTIaKBx2kT-29" value="" style="curved=1;endArrow=classic;html=1;rounded=0;exitX=0.5;exitY=1;exitDx=0;exitDy=0;entryX=0.5;entryY=1;entryDx=0;entryDy=0;" edge="1" parent="9C7nbwquLxDTIaKBx2kT-5" source="9C7nbwquLxDTIaKBx2kT-17" target="9C7nbwquLxDTIaKBx2kT-7">
          <mxGeometry width="50" height="50" relative="1" as="geometry">
            <mxPoint x="160" y="220" as="sourcePoint" />
            <mxPoint x="210" y="170" as="targetPoint" />
            <Array as="points">
              <mxPoint x="230" y="160" />
              <mxPoint x="160" y="180" />
            </Array>
          </mxGeometry>
        </mxCell>
        <mxCell id="9C7nbwquLxDTIaKBx2kT-33" value="hollow node" style="swimlane;" vertex="1" parent="9C7nbwquLxDTIaKBx2kT-5">
          <mxGeometry x="230" y="160" width="80" height="80" as="geometry" />
        </mxCell>
        <mxCell id="9C7nbwquLxDTIaKBx2kT-34" value="hollow kubelet" style="rounded=0;whiteSpace=wrap;html=1;" vertex="1" parent="9C7nbwquLxDTIaKBx2kT-33">
          <mxGeometry x="10" y="30" width="60" height="40" as="geometry" />
        </mxCell>
        <mxCell id="9C7nbwquLxDTIaKBx2kT-35" value="x50" style="text;html=1;align=center;verticalAlign=middle;resizable=0;points=[];autosize=1;strokeColor=none;fillColor=none;" vertex="1" parent="9C7nbwquLxDTIaKBx2kT-5">
          <mxGeometry x="310" y="190" width="30" height="20" as="geometry" />
        </mxCell>
        <mxCell id="9C7nbwquLxDTIaKBx2kT-37" value="" style="curved=1;endArrow=classic;html=1;rounded=0;entryX=0.5;entryY=1;entryDx=0;entryDy=0;exitX=0;exitY=0.5;exitDx=0;exitDy=0;" edge="1" parent="9C7nbwquLxDTIaKBx2kT-5" source="9C7nbwquLxDTIaKBx2kT-34" target="9C7nbwquLxDTIaKBx2kT-7">
          <mxGeometry width="50" height="50" relative="1" as="geometry">
            <mxPoint x="210" y="290" as="sourcePoint" />
            <mxPoint x="260" y="240" as="targetPoint" />
            <Array as="points">
              <mxPoint x="190" y="210" />
              <mxPoint x="120" y="180" />
            </Array>
          </mxGeometry>
        </mxCell>
        <mxCell id="9C7nbwquLxDTIaKBx2kT-19" value="external cluster" style="swimlane;" vertex="1" parent="1">
          <mxGeometry x="130" y="470" width="330" height="160" as="geometry" />
        </mxCell>
        <mxCell id="9C7nbwquLxDTIaKBx2kT-20" value="external-master01" style="swimlane;" vertex="1" parent="9C7nbwquLxDTIaKBx2kT-19">
          <mxGeometry x="10" y="30" width="170" height="110" as="geometry" />
        </mxCell>
        <mxCell id="9C7nbwquLxDTIaKBx2kT-21" value="API server" style="rounded=0;whiteSpace=wrap;html=1;" vertex="1" parent="9C7nbwquLxDTIaKBx2kT-20">
          <mxGeometry x="10" y="70" width="70" height="30" as="geometry" />
        </mxCell>
        <mxCell id="9C7nbwquLxDTIaKBx2kT-22" value="controller manager" style="rounded=0;whiteSpace=wrap;html=1;" vertex="1" parent="9C7nbwquLxDTIaKBx2kT-20">
          <mxGeometry x="10" y="30" width="70" height="30" as="geometry" />
        </mxCell>
        <mxCell id="9C7nbwquLxDTIaKBx2kT-23" value="scheduler" style="rounded=0;whiteSpace=wrap;html=1;" vertex="1" parent="9C7nbwquLxDTIaKBx2kT-20">
          <mxGeometry x="90" y="30" width="70" height="30" as="geometry" />
        </mxCell>
        <mxCell id="9C7nbwquLxDTIaKBx2kT-24" value="kubelet" style="rounded=0;whiteSpace=wrap;html=1;" vertex="1" parent="9C7nbwquLxDTIaKBx2kT-20">
          <mxGeometry x="90" y="70" width="70" height="30" as="geometry" />
        </mxCell>
        <mxCell id="9C7nbwquLxDTIaKBx2kT-25" value="" style="shape=curlyBracket;whiteSpace=wrap;html=1;rounded=1;" vertex="1" parent="9C7nbwquLxDTIaKBx2kT-19">
          <mxGeometry x="170" y="80" width="30" height="65" as="geometry" />
        </mxCell>
        <mxCell id="9C7nbwquLxDTIaKBx2kT-28" value="x50" style="text;html=1;align=center;verticalAlign=middle;resizable=0;points=[];autosize=1;strokeColor=none;fillColor=none;" vertex="1" parent="9C7nbwquLxDTIaKBx2kT-19">
          <mxGeometry x="290" y="110" width="30" height="20" as="geometry" />
        </mxCell>
        <mxCell id="9C7nbwquLxDTIaKBx2kT-31" value="hollow pod" style="swimlane;" vertex="1" parent="9C7nbwquLxDTIaKBx2kT-19">
          <mxGeometry x="210" y="72.5" width="80" height="80" as="geometry" />
        </mxCell>
        <mxCell id="9C7nbwquLxDTIaKBx2kT-32" value="hollow kubelet" style="rounded=0;whiteSpace=wrap;html=1;" vertex="1" parent="9C7nbwquLxDTIaKBx2kT-31">
          <mxGeometry x="10" y="30" width="60" height="40" as="geometry" />
        </mxCell>
        <mxCell id="9C7nbwquLxDTIaKBx2kT-36" value="" style="curved=1;endArrow=classic;html=1;rounded=0;exitX=0.5;exitY=0;exitDx=0;exitDy=0;entryX=0.5;entryY=1;entryDx=0;entryDy=0;" edge="1" parent="1" source="9C7nbwquLxDTIaKBx2kT-31" target="9C7nbwquLxDTIaKBx2kT-33">
          <mxGeometry width="50" height="50" relative="1" as="geometry">
            <mxPoint x="300" y="490" as="sourcePoint" />
            <mxPoint x="350" y="440" as="targetPoint" />
            <Array as="points">
              <mxPoint x="410" y="520" />
              <mxPoint x="400" y="470" />
            </Array>
          </mxGeometry>
        </mxCell>
      </root>
    </mxGraphModel>
  </diagram>
</mxfile>
